<svg width="600" height="599" viewBox="0 0 600 599" fill="none" xmlns="http://www.w3.org/2000/svg">
<path d="M27 0V599M81.6 0V599M136.2 0V599M190.8 0V599M245.4 0V599M300 0V599M354.6 0V599M409.2 0V599M463.8 0V599M518.4 0V599M573 0V599M2.38419e-05 574.097L600 574.097M2.09808e-05 519.387L600 519.387M1.90735e-05 464.678L600 464.678M1.62125e-05 409.969L600 409.969M1.43051e-05 355.259L600 355.259M1.14441e-05 300.55L600 300.55M9.53674e-06 245.841L600 245.841M6.67572e-06 191.131L600 191.131M4.76837e-06 136.422L600 136.422M1.90735e-06 81.7127L600 81.7127M0 27.0034L600 27.0033" stroke="#EFF7FD"/>
</svg>
